<svg width="26" height="31" viewBox="0 0 26 31" fill="none" xmlns="http://www.w3.org/2000/svg">
<path d="M5.41442 22.0095C5.58107 22.2414 5.67072 22.5197 5.67072 22.8052V29.1696C5.67072 29.9224 5.06044 30.5327 4.30762 30.5327H1.3631C0.610282 30.5327 0 29.9224 0 29.1696V18.7091C0 17.3851 1.6971 16.8385 2.4699 17.9135L5.41442 22.0095Z" fill="#14E78A"/>
<path d="M12.5621 0C15.2084 0 17.5065 0.436139 19.4548 1.30853C21.4319 2.1809 22.9434 3.43147 23.9901 5.05972C25.0369 6.68815 25.5608 8.62184 25.5608 10.8609C25.5608 13.0708 25.0369 15.0046 23.9901 16.6621C22.9433 18.2902 21.4319 19.541 19.4548 20.4133C18.1442 21.0001 16.675 21.3877 15.0484 21.5793C14.5753 21.635 14.1148 21.4177 13.8366 21.0309L11.7107 18.075C11.3647 17.5938 11.7085 16.923 12.3012 16.923C14.7727 16.9229 16.6486 16.4003 17.928 15.3535C19.2073 14.3068 19.8461 12.809 19.8462 10.8609C19.8462 8.91284 19.2072 7.41509 17.928 6.36825C16.6486 5.32146 14.7727 4.79756 12.3012 4.79748H6.85875C6.20262 4.79748 5.67072 5.32938 5.67072 5.98551C5.67072 7.13944 4.19159 7.61592 3.51805 6.67896L0.253867 2.13823C0.0887989 1.90861 0 1.63295 0 1.35015C0 0.604483 0.604483 0 1.35015 0H12.5621Z" fill="#14E78A"/>
</svg>
