<svg width="16" height="14" viewBox="0 0 16 14" fill="none" xmlns="http://www.w3.org/2000/svg">
<path fill-rule="evenodd" clip-rule="evenodd" d="M14.051 0.0916088C14.2438 0.0104941 14.4547 -0.0174818 14.6619 0.0105926C14.8691 0.0386669 15.065 0.121766 15.2292 0.251239C15.3934 0.380712 15.5199 0.551827 15.5955 0.746773C15.6711 0.941719 15.6931 1.15337 15.6591 1.3597L13.8904 12.0885C13.7188 13.1234 12.5833 13.7169 11.6342 13.2014C10.8403 12.7701 9.66108 12.1057 8.60044 11.4124C8.07012 11.0653 6.44563 9.95399 6.64528 9.16319C6.81685 8.48703 9.54644 5.94618 11.1062 4.43555C11.7184 3.84206 11.4392 3.49969 10.7163 4.04561C8.92097 5.40104 6.03853 7.46227 5.08552 8.0425C4.24481 8.5541 3.80651 8.64145 3.28243 8.5541C2.3263 8.395 1.43957 8.14856 0.715843 7.84831C-0.262127 7.44277 -0.214555 6.09825 0.715064 5.70675L14.051 0.0916088Z" fill="white"/>
</svg>
